<?xml version="1.0" encoding="UTF-8" standalone="no"?>
<!-- Generator: Adobe Illustrator 16.0.0, SVG Export Plug-In . SVG Version: 6.00 Build 0)  -->

<svg
   xmlns:osb="http://www.openswatchbook.org/uri/2009/osb"
   xmlns:dc="http://purl.org/dc/elements/1.1/"
   xmlns:cc="http://creativecommons.org/ns#"
   xmlns:rdf="http://www.w3.org/1999/02/22-rdf-syntax-ns#"
   xmlns:svg="http://www.w3.org/2000/svg"
   xmlns="http://www.w3.org/2000/svg"
   xmlns:sodipodi="http://sodipodi.sourceforge.net/DTD/sodipodi-0.dtd"
   xmlns:inkscape="http://www.inkscape.org/namespaces/inkscape"
   version="1.1"
   id="Layer_1"
   x="0px"
   y="0px"
   width="128"
   height="128"
   viewBox="0 0 128 128"
   enable-background="new 0 0 97 97"
   xml:space="preserve"
   inkscape:version="0.91 r13725"
   sodipodi:docname="gititgui.svg"
   inkscape:export-filename="/home/philip/Downloads/gititgui128.png"
   inkscape:export-xdpi="90"
   inkscape:export-ydpi="90"><metadata
     id="metadata11"><rdf:RDF><cc:Work
         rdf:about=""><dc:format>image/svg+xml</dc:format><dc:type
           rdf:resource="http://purl.org/dc/dcmitype/StillImage" /><dc:title></dc:title></cc:Work></rdf:RDF></metadata><defs
     id="defs9"><linearGradient
       id="linearGradient4165"
       osb:paint="solid"><stop
         style="stop-color:#1fa15c;stop-opacity:1;"
         offset="0"
         id="stop4167" /></linearGradient><linearGradient
       id="linearGradient4159"
       osb:paint="solid"><stop
         style="stop-color:#1fa16a;stop-opacity:1;"
         offset="0"
         id="stop4161" /></linearGradient></defs><sodipodi:namedview
     pagecolor="#ffffff"
     bordercolor="#666666"
     borderopacity="1"
     objecttolerance="10"
     gridtolerance="10"
     guidetolerance="10"
     inkscape:pageopacity="0"
     inkscape:pageshadow="2"
     inkscape:window-width="1860"
     inkscape:window-height="1051"
     id="namedview7"
     showgrid="false"
     inkscape:zoom="2"
     inkscape:cx="80.01189"
     inkscape:cy="37.211011"
     inkscape:window-x="60"
     inkscape:window-y="0"
     inkscape:window-maximized="1"
     inkscape:current-layer="Layer_1" /><circle
     style="color:#000000;clip-rule:nonzero;display:inline;overflow:visible;visibility:visible;opacity:1;isolation:auto;mix-blend-mode:normal;color-interpolation:sRGB;color-interpolation-filters:linearRGB;solid-color:#000000;solid-opacity:1;fill:#ffffff;fill-opacity:1;fill-rule:nonzero;stroke:none;stroke-width:0.74964345;stroke-linecap:butt;stroke-linejoin:miter;stroke-miterlimit:4;stroke-dasharray:none;stroke-dashoffset:0;stroke-opacity:1;color-rendering:auto;image-rendering:auto;shape-rendering:auto;text-rendering:auto;enable-background:accumulate"
     id="path4143"
     cx="64.5"
     cy="64.137848"
     r="55.534286" /><path
     inkscape:connector-curvature="0"
     style="color:#000000;clip-rule:nonzero;display:inline;overflow:visible;visibility:visible;opacity:1;isolation:auto;mix-blend-mode:normal;color-interpolation:sRGB;color-interpolation-filters:linearRGB;solid-color:#000000;solid-opacity:1;fill:#f05133;fill-opacity:1;fill-rule:nonzero;stroke:none;stroke-width:0.74964345;stroke-linecap:butt;stroke-linejoin:miter;stroke-miterlimit:4;stroke-dasharray:none;stroke-dashoffset:0;stroke-opacity:1;color-rendering:auto;image-rendering:auto;shape-rendering:auto;text-rendering:auto;enable-background:accumulate"
     d="M 64.4987,1.4999953 A 63.000409,63.000409 0 0 0 1.5,64.5013 63.000409,63.000409 0 0 0 64.4987,127.5 63.000409,63.000409 0 0 0 127.5,64.5013 63.000409,63.000409 0 0 0 64.4987,1.4999953 Z m -0.09901,13.0348427 c 1.64707,0 3.295543,0.629668 4.551644,1.886313 l 43.630113,43.627511 c 2.51329,2.513288 2.51329,6.589997 0,9.103286 L 69.154559,112.57884 c -2.515467,2.51329 -6.591081,2.51329 -9.103286,0 L 16.418551,68.951333 c -2.51329,-2.51329 -2.51329,-6.590425 0,-9.105892 L 46.336419,29.932783 57.664722,41.26369 c -1.161484,2.781911 -0.61611,6.106925 1.649221,8.371168 0.741697,0.743872 1.595479,1.295952 2.509006,1.670064 l 0,27.440129 c -0.913526,0.37411 -1.769483,0.931631 -2.509006,1.670065 -2.990717,2.989629 -2.990717,7.835604 0,10.830669 2.988542,2.98963 7.837348,2.98963 10.828065,0 2.990715,-2.99398 2.990715,-7.839954 0,-10.830669 -0.606843,-0.606845 -1.293145,-1.087546 -2.021794,-1.448606 l 0,-27.184798 10.330431,10.330432 c -1.140824,2.771033 -0.584164,6.078284 1.664854,8.32948 2.993979,2.991802 7.840383,2.991802 10.833276,0 2.990715,-2.992894 2.990715,-7.839954 0,-10.830669 -2.140267,-2.143528 -5.231848,-2.740372 -7.912617,-1.815969 L 71.960581,46.716804 c 0.925489,-2.680768 0.32278,-5.767571 -1.818573,-7.910011 -2.128303,-2.129391 -5.189525,-2.736857 -7.860507,-1.834206 L 50.789057,25.48275 59.848052,16.421151 c 1.257188,-1.256645 2.904574,-1.886313 4.551642,-1.886313 z"
     id="path4140" /></svg>